<?xml version="1.0" encoding="UTF-8"?>
<svg xmlns="http://www.w3.org/2000/svg" xmlns:xlink="http://www.w3.org/1999/xlink" width="40px" height="40px" viewBox="0 0 40 40" version="1.1">
<defs>
<linearGradient id="linear0" gradientUnits="userSpaceOnUse" x1="0" y1="0" x2="1" y2="0" gradientTransform="matrix(0.000000000000000623,18.304688,-10.167969,0.000000000000001121,-4.914062,11.527344)">
<stop offset="0" style="stop-color:rgb(99.215686%,10.588235%,0%);stop-opacity:1;"/>
<stop offset="0.1666" style="stop-color:rgb(99.215686%,10.588235%,0%);stop-opacity:1;"/>
<stop offset="0.1667" style="stop-color:rgb(99.215686%,60.784314%,0.392157%);stop-opacity:1;"/>
<stop offset="0.3333" style="stop-color:rgb(99.215686%,60.784314%,0.392157%);stop-opacity:1;"/>
<stop offset="0.3334" style="stop-color:rgb(99.215686%,93.72549%,0.392157%);stop-opacity:1;"/>
<stop offset="0.4999" style="stop-color:rgb(99.215686%,93.72549%,0.392157%);stop-opacity:1;"/>
<stop offset="0.5" style="stop-color:rgb(12.54902%,85.882353%,0.392157%);stop-opacity:1;"/>
<stop offset="0.6666" style="stop-color:rgb(12.54902%,85.882353%,0.392157%);stop-opacity:1;"/>
<stop offset="0.6667" style="stop-color:rgb(0%,54.117647%,98.823529%);stop-opacity:1;"/>
<stop offset="0.8333" style="stop-color:rgb(0%,54.117647%,98.823529%);stop-opacity:1;"/>
<stop offset="0.8334" style="stop-color:rgb(42.745098%,24.705882%,98.823529%);stop-opacity:1;"/>
<stop offset="1" style="stop-color:rgb(42.745098%,24.705882%,98.823529%);stop-opacity:1;"/>
</linearGradient>
<clipPath id="clip1">
  <path d="M 5 10.167969 L 16 10.167969 L 16 29 L 5 29 Z M 5 10.167969 "/>
</clipPath>
<linearGradient id="linear1" gradientUnits="userSpaceOnUse" x1="0" y1="0" x2="1" y2="0" gradientTransform="matrix(0.000000000000000623,18.304688,-10.167969,0.000000000000001121,5.085938,10.167969)">
<stop offset="0" style="stop-color:rgb(99.215686%,10.588235%,0%);stop-opacity:1;"/>
<stop offset="0.1666" style="stop-color:rgb(99.215686%,10.588235%,0%);stop-opacity:1;"/>
<stop offset="0.1667" style="stop-color:rgb(99.215686%,60.784314%,0.392157%);stop-opacity:1;"/>
<stop offset="0.3333" style="stop-color:rgb(99.215686%,60.784314%,0.392157%);stop-opacity:1;"/>
<stop offset="0.3334" style="stop-color:rgb(99.215686%,93.72549%,0.392157%);stop-opacity:1;"/>
<stop offset="0.4999" style="stop-color:rgb(99.215686%,93.72549%,0.392157%);stop-opacity:1;"/>
<stop offset="0.5" style="stop-color:rgb(12.54902%,85.882353%,0.392157%);stop-opacity:1;"/>
<stop offset="0.6666" style="stop-color:rgb(12.54902%,85.882353%,0.392157%);stop-opacity:1;"/>
<stop offset="0.6667" style="stop-color:rgb(0%,54.117647%,98.823529%);stop-opacity:1;"/>
<stop offset="0.8333" style="stop-color:rgb(0%,54.117647%,98.823529%);stop-opacity:1;"/>
<stop offset="0.8334" style="stop-color:rgb(42.745098%,24.705882%,98.823529%);stop-opacity:1;"/>
<stop offset="1" style="stop-color:rgb(42.745098%,24.705882%,98.823529%);stop-opacity:1;"/>
</linearGradient>
</defs>
<g id="surface1">
<path style=" stroke:none;fill-rule:nonzero;fill:url(#linear0);" d="M -4.914062 11.527344 L 5.253906 11.527344 L 5.253906 29.832031 L -4.914062 29.832031 Z M -4.914062 11.527344 "/>
<g clip-path="url(#clip1)" clip-rule="nonzero">
<path style=" stroke:none;fill-rule:nonzero;fill:url(#linear1);" d="M 5.085938 10.167969 L 15.253906 10.167969 L 15.253906 28.472656 L 5.085938 28.472656 Z M 5.085938 10.167969 "/>
</g>
<path style=" stroke:none;fill-rule:nonzero;fill:rgb(0%,0%,0%);fill-opacity:1;" d="M 12.882812 31.527344 L 12.882812 27.457031 L 16.949219 27.457031 L 16.949219 30.507812 L 15.933594 30.507812 L 15.933594 31.527344 Z M 12.882812 31.527344 "/>
<path style=" stroke:none;fill-rule:nonzero;fill:rgb(60.000002%,60.000002%,60.000002%);fill-opacity:1;" d="M 13.898438 28.472656 L 15.933594 28.472656 L 15.933594 30.507812 L 13.898438 30.507812 Z M 13.898438 28.472656 "/>
<path style=" stroke:none;fill-rule:nonzero;fill:rgb(0%,0%,0%);fill-opacity:1;" d="M 22.035156 31.527344 L 22.035156 29.492188 L 17.964844 29.492188 L 17.964844 30.507812 L 18.984375 30.507812 L 18.984375 31.527344 Z M 22.035156 31.527344 "/>
<path style=" stroke:none;fill-rule:nonzero;fill:rgb(60.000002%,60.000002%,60.000002%);fill-opacity:1;" d="M 21.015625 29.492188 L 18.984375 29.492188 L 18.984375 30.507812 L 21.015625 30.507812 Z M 21.015625 29.492188 "/>
<path style=" stroke:none;fill-rule:nonzero;fill:rgb(0%,0%,0%);fill-opacity:1;" d="M 32.203125 31.527344 L 32.203125 29.492188 L 28.136719 29.492188 L 28.136719 30.507812 L 29.152344 30.507812 L 29.152344 31.527344 Z M 32.203125 31.527344 "/>
<path style=" stroke:none;fill-rule:nonzero;fill:rgb(60.000002%,60.000002%,60.000002%);fill-opacity:1;" d="M 31.1875 29.492188 L 29.152344 29.492188 L 29.152344 30.507812 L 31.1875 30.507812 Z M 31.1875 29.492188 "/>
<path style=" stroke:none;fill-rule:nonzero;fill:rgb(100%,80.000001%,60.000002%);fill-opacity:1;" d="M 13.898438 12.203125 L 33.21875 12.203125 L 33.21875 28.472656 L 13.898438 28.472656 Z M 13.898438 12.203125 "/>
<path style=" stroke:none;fill-rule:nonzero;fill:rgb(100%,60.000002%,100%);fill-opacity:1;" d="M 14.914062 25.421875 L 14.914062 15.253906 L 15.933594 15.253906 L 15.933594 14.238281 L 16.949219 14.238281 L 16.949219 13.21875 L 30.167969 13.21875 L 30.167969 14.238281 L 31.1875 14.238281 L 31.1875 15.253906 L 32.203125 15.253906 L 32.203125 25.421875 L 31.1875 25.421875 L 31.1875 26.441406 L 30.167969 26.441406 L 30.167969 27.457031 L 16.949219 27.457031 L 16.949219 26.441406 L 15.933594 26.441406 L 15.933594 25.421875 Z M 14.914062 25.421875 "/>
<path style=" stroke:none;fill-rule:nonzero;fill:rgb(100%,20%,60.000002%);fill-opacity:1;" d="M 29.152344 16.269531 L 30.167969 16.269531 L 30.167969 17.289062 L 29.152344 17.289062 Z M 25.085938 14.238281 L 26.101562 14.238281 L 26.101562 15.253906 L 25.085938 15.253906 Z M 22.035156 14.238281 L 23.050781 14.238281 L 23.050781 15.253906 L 22.035156 15.253906 Z M 21.015625 18.304688 L 22.035156 18.304688 L 22.035156 19.320312 L 21.015625 19.320312 Z M 22.035156 21.355469 L 23.050781 21.355469 L 23.050781 22.371094 L 22.035156 22.371094 Z M 20 24.40625 L 21.015625 24.40625 L 21.015625 25.421875 L 20 25.421875 Z M 17.964844 20.339844 L 18.984375 20.339844 L 18.984375 21.355469 L 17.964844 21.355469 Z M 15.933594 22.371094 L 16.949219 22.371094 L 16.949219 23.390625 L 15.933594 23.390625 Z M 16.949219 25.421875 L 17.964844 25.421875 L 17.964844 26.441406 L 16.949219 26.441406 Z M 16.949219 15.253906 L 17.964844 15.253906 L 17.964844 16.269531 L 16.949219 16.269531 Z M 16.949219 15.253906 "/>
<path style=" stroke:none;fill-rule:nonzero;fill:rgb(0%,0%,0%);fill-opacity:1;" d="M 14.914062 28.472656 L 32.203125 28.472656 L 32.203125 29.492188 L 14.914062 29.492188 Z M 14.914062 11.1875 L 32.203125 11.1875 L 32.203125 12.203125 L 14.914062 12.203125 Z M 33.21875 27.457031 L 33.21875 13.21875 L 34.238281 13.21875 L 34.238281 27.457031 Z M 12.882812 27.457031 L 12.882812 13.21875 L 13.898438 13.21875 L 13.898438 27.457031 Z M 13.898438 27.457031 L 14.914062 27.457031 L 14.914062 28.472656 L 13.898438 28.472656 Z M 13.898438 12.203125 L 14.914062 12.203125 L 14.914062 13.21875 L 13.898438 13.21875 Z M 32.203125 12.203125 L 33.21875 12.203125 L 33.21875 13.21875 L 32.203125 13.21875 Z M 32.203125 27.457031 L 33.21875 27.457031 L 33.21875 28.472656 L 32.203125 28.472656 Z M 32.203125 27.457031 "/>
<path style=" stroke:none;fill-rule:nonzero;fill:rgb(60.000002%,60.000002%,60.000002%);fill-opacity:1;" d="M 25.085938 26.441406 L 25.085938 21.355469 L 26.101562 21.355469 L 26.101562 17.289062 L 28.136719 17.289062 L 28.136719 18.304688 L 29.152344 18.304688 L 29.152344 19.320312 L 30.167969 19.320312 L 30.167969 20.339844 L 34.238281 20.339844 L 34.238281 19.320312 L 35.253906 19.320312 L 35.253906 18.304688 L 36.269531 18.304688 L 36.269531 17.289062 L 38.304688 17.289062 L 38.304688 21.355469 L 39.320312 21.355469 L 39.320312 26.441406 L 38.304688 26.441406 L 38.304688 27.457031 L 37.289062 27.457031 L 37.289062 28.472656 L 27.117188 28.472656 L 27.117188 27.457031 L 26.101562 27.457031 L 26.101562 26.441406 Z M 25.085938 26.441406 "/>
<path style=" stroke:none;fill-rule:nonzero;fill:rgb(0%,0%,0%);fill-opacity:1;" d="M 37.289062 27.457031 L 38.304688 27.457031 L 38.304688 28.472656 L 37.289062 28.472656 Z M 38.304688 26.441406 L 39.320312 26.441406 L 39.320312 27.457031 L 38.304688 27.457031 Z M 39.320312 21.355469 L 40.339844 21.355469 L 40.339844 26.441406 L 39.320312 26.441406 Z M 38.304688 17.289062 L 39.320312 17.289062 L 39.320312 21.355469 L 38.304688 21.355469 Z M 36.269531 16.269531 L 38.304688 16.269531 L 38.304688 17.289062 L 36.269531 17.289062 Z M 30.167969 19.320312 L 34.238281 19.320312 L 34.238281 20.339844 L 30.167969 20.339844 Z M 26.101562 16.269531 L 28.136719 16.269531 L 28.136719 17.289062 L 26.101562 17.289062 Z M 25.085938 17.289062 L 26.101562 17.289062 L 26.101562 21.355469 L 25.085938 21.355469 Z M 24.066406 21.355469 L 25.085938 21.355469 L 25.085938 26.441406 L 24.066406 26.441406 Z M 35.253906 17.289062 L 36.269531 17.289062 L 36.269531 18.304688 L 35.253906 18.304688 Z M 34.238281 18.304688 L 35.253906 18.304688 L 35.253906 19.320312 L 34.238281 19.320312 Z M 29.152344 18.304688 L 30.167969 18.304688 L 30.167969 19.320312 L 29.152344 19.320312 Z M 28.136719 17.289062 L 29.152344 17.289062 L 29.152344 18.304688 L 28.136719 18.304688 Z M 27.117188 28.472656 L 37.289062 28.472656 L 37.289062 29.492188 L 27.117188 29.492188 Z M 26.101562 27.457031 L 27.117188 27.457031 L 27.117188 28.472656 L 26.101562 28.472656 Z M 25.085938 26.441406 L 26.101562 26.441406 L 26.101562 27.457031 L 25.085938 27.457031 Z M 25.085938 26.441406 "/>
<path style=" stroke:none;fill-rule:nonzero;fill:rgb(100%,60.000002%,60.000002%);fill-opacity:1;" d="M 26.101562 24.40625 L 28.136719 24.40625 L 28.136719 26.441406 L 26.101562 26.441406 Z M 26.101562 24.40625 "/>
<path style=" stroke:none;fill-rule:nonzero;fill:rgb(100%,60.000002%,60.000002%);fill-opacity:1;" d="M 37.289062 24.40625 L 39.320312 24.40625 L 39.320312 26.441406 L 37.289062 26.441406 Z M 37.289062 24.40625 "/>
<path style=" stroke:none;fill-rule:nonzero;fill:rgb(0%,0%,0%);fill-opacity:1;" d="M 29.152344 27.457031 L 29.152344 25.421875 L 30.167969 25.421875 L 30.167969 26.441406 L 32.203125 26.441406 L 32.203125 25.421875 L 33.21875 25.421875 L 33.21875 26.441406 L 35.253906 26.441406 L 35.253906 25.421875 L 36.269531 25.421875 L 36.269531 27.457031 Z M 29.152344 27.457031 "/>
<path style=" stroke:none;fill-rule:nonzero;fill:rgb(0%,0%,0%);fill-opacity:1;" d="M 33.21875 23.390625 L 34.238281 23.390625 L 34.238281 24.40625 L 33.21875 24.40625 Z M 33.21875 23.390625 "/>
<path style=" stroke:none;fill-rule:nonzero;fill:rgb(0%,0%,0%);fill-opacity:1;" d="M 35.253906 24.40625 L 35.253906 23.390625 L 36.269531 23.390625 L 36.269531 22.371094 L 37.289062 22.371094 L 37.289062 24.40625 Z M 35.253906 24.40625 "/>
<path style=" stroke:none;fill-rule:nonzero;fill:rgb(100%,100%,100%);fill-opacity:1;" d="M 35.253906 22.371094 L 36.269531 22.371094 L 36.269531 23.390625 L 35.253906 23.390625 Z M 35.253906 22.371094 "/>
<path style=" stroke:none;fill-rule:nonzero;fill:rgb(0%,0%,0%);fill-opacity:1;" d="M 28.136719 24.40625 L 28.136719 23.390625 L 29.152344 23.390625 L 29.152344 22.371094 L 30.167969 22.371094 L 30.167969 24.40625 Z M 28.136719 24.40625 "/>
<path style=" stroke:none;fill-rule:nonzero;fill:rgb(100%,100%,100%);fill-opacity:1;" d="M 28.136719 22.371094 L 29.152344 22.371094 L 29.152344 23.390625 L 28.136719 23.390625 Z M 28.136719 22.371094 "/>
<path style=" stroke:none;fill-rule:nonzero;fill:rgb(0%,0%,0%);fill-opacity:1;" d="M 37.289062 31.527344 L 37.289062 29.492188 L 33.21875 29.492188 L 33.21875 30.507812 L 34.238281 30.507812 L 34.238281 31.527344 Z M 37.289062 31.527344 "/>
<path style=" stroke:none;fill-rule:nonzero;fill:rgb(60.000002%,60.000002%,60.000002%);fill-opacity:1;" d="M 36.269531 29.492188 L 34.238281 29.492188 L 34.238281 30.507812 L 36.269531 30.507812 Z M 36.269531 29.492188 "/>
<path style=" stroke:none;fill-rule:nonzero;fill:rgb(0%,0%,0%);fill-opacity:1;" d="M 6.78125 25.421875 L 6.78125 23.390625 L 8.8125 23.390625 L 8.8125 22.371094 L 11.863281 22.371094 L 11.863281 21.355469 L 12.882812 21.355469 L 12.882812 25.421875 L 11.863281 25.421875 L 11.863281 26.441406 L 7.796875 26.441406 L 7.796875 25.421875 Z M 6.78125 25.421875 "/>
<path style=" stroke:none;fill-rule:nonzero;fill:rgb(60.000002%,60.000002%,60.000002%);fill-opacity:1;" d="M 7.796875 25.421875 L 7.796875 24.40625 L 8.8125 24.40625 L 8.8125 23.390625 L 12.882812 23.390625 L 12.882812 24.40625 L 10.847656 24.40625 L 10.847656 25.421875 Z M 7.796875 25.421875 "/>
</g>
</svg>
