<?xml version="1.0" encoding="UTF-8"?>
<svg xmlns="http://www.w3.org/2000/svg" xmlns:xlink="http://www.w3.org/1999/xlink" width="40px" height="40px" viewBox="0 0 40 40" version="1.1">
<defs>
<clipPath id="clip1">
  <path d="M 0 10.167969 L 4 10.167969 L 4 29 L 0 29 Z M 0 10.167969 "/>
</clipPath>
<linearGradient id="linear0" gradientUnits="userSpaceOnUse" x1="0" y1="0" x2="1" y2="0" gradientTransform="matrix(0.000000000000000623,18.304688,-10.167969,0.000000000000001121,-6.269531,10.167969)">
<stop offset="0" style="stop-color:rgb(99.215686%,10.588235%,0%);stop-opacity:1;"/>
<stop offset="0.1666" style="stop-color:rgb(99.215686%,10.588235%,0%);stop-opacity:1;"/>
<stop offset="0.1667" style="stop-color:rgb(99.215686%,60.784314%,0.392157%);stop-opacity:1;"/>
<stop offset="0.3333" style="stop-color:rgb(99.215686%,60.784314%,0.392157%);stop-opacity:1;"/>
<stop offset="0.3334" style="stop-color:rgb(99.215686%,93.72549%,0.392157%);stop-opacity:1;"/>
<stop offset="0.4999" style="stop-color:rgb(99.215686%,93.72549%,0.392157%);stop-opacity:1;"/>
<stop offset="0.5" style="stop-color:rgb(12.54902%,85.882353%,0.392157%);stop-opacity:1;"/>
<stop offset="0.6666" style="stop-color:rgb(12.54902%,85.882353%,0.392157%);stop-opacity:1;"/>
<stop offset="0.6667" style="stop-color:rgb(0%,54.117647%,98.823529%);stop-opacity:1;"/>
<stop offset="0.8333" style="stop-color:rgb(0%,54.117647%,98.823529%);stop-opacity:1;"/>
<stop offset="0.8334" style="stop-color:rgb(42.745098%,24.705882%,98.823529%);stop-opacity:1;"/>
<stop offset="1" style="stop-color:rgb(42.745098%,24.705882%,98.823529%);stop-opacity:1;"/>
</linearGradient>
<linearGradient id="linear1" gradientUnits="userSpaceOnUse" x1="0" y1="0" x2="1" y2="0" gradientTransform="matrix(0.000000000000000623,18.304688,-10.167969,0.000000000000001121,3.730469,11.527344)">
<stop offset="0" style="stop-color:rgb(99.215686%,10.588235%,0%);stop-opacity:1;"/>
<stop offset="0.1666" style="stop-color:rgb(99.215686%,10.588235%,0%);stop-opacity:1;"/>
<stop offset="0.1667" style="stop-color:rgb(99.215686%,60.784314%,0.392157%);stop-opacity:1;"/>
<stop offset="0.3333" style="stop-color:rgb(99.215686%,60.784314%,0.392157%);stop-opacity:1;"/>
<stop offset="0.3334" style="stop-color:rgb(99.215686%,93.72549%,0.392157%);stop-opacity:1;"/>
<stop offset="0.4999" style="stop-color:rgb(99.215686%,93.72549%,0.392157%);stop-opacity:1;"/>
<stop offset="0.5" style="stop-color:rgb(12.54902%,85.882353%,0.392157%);stop-opacity:1;"/>
<stop offset="0.6666" style="stop-color:rgb(12.54902%,85.882353%,0.392157%);stop-opacity:1;"/>
<stop offset="0.6667" style="stop-color:rgb(0%,54.117647%,98.823529%);stop-opacity:1;"/>
<stop offset="0.8333" style="stop-color:rgb(0%,54.117647%,98.823529%);stop-opacity:1;"/>
<stop offset="0.8334" style="stop-color:rgb(42.745098%,24.705882%,98.823529%);stop-opacity:1;"/>
<stop offset="1" style="stop-color:rgb(42.745098%,24.705882%,98.823529%);stop-opacity:1;"/>
</linearGradient>
<clipPath id="clip2">
  <path d="M 5.761719 19 L 13 19 L 13 25 L 5.761719 25 Z M 5.761719 19 "/>
</clipPath>
</defs>
<g id="surface1">
<g clip-path="url(#clip1)" clip-rule="nonzero">
<path style=" stroke:none;fill-rule:nonzero;fill:url(#linear0);" d="M -6.269531 10.167969 L 3.898438 10.167969 L 3.898438 28.472656 L -6.269531 28.472656 Z M -6.269531 10.167969 "/>
</g>
<path style=" stroke:none;fill-rule:nonzero;fill:url(#linear1);" d="M 3.730469 11.527344 L 13.898438 11.527344 L 13.898438 29.832031 L 3.730469 29.832031 Z M 3.730469 11.527344 "/>
<path style=" stroke:none;fill-rule:nonzero;fill:rgb(0%,0%,0%);fill-opacity:1;" d="M 9.832031 31.527344 L 9.832031 28.472656 L 10.847656 28.472656 L 10.847656 27.457031 L 11.863281 27.457031 L 11.863281 26.441406 L 14.914062 26.441406 L 14.914062 29.492188 L 13.898438 29.492188 L 13.898438 30.507812 L 12.882812 30.507812 L 12.882812 31.527344 Z M 9.832031 31.527344 "/>
<path style=" stroke:none;fill-rule:nonzero;fill:rgb(60.000002%,60.000002%,60.000002%);fill-opacity:1;" d="M 10.847656 30.507812 L 10.847656 28.472656 L 11.863281 28.472656 L 11.863281 27.457031 L 13.898438 27.457031 L 13.898438 29.492188 L 12.882812 29.492188 L 12.882812 30.507812 Z M 10.847656 30.507812 "/>
<path style=" stroke:none;fill-rule:nonzero;fill:rgb(0%,0%,0%);fill-opacity:1;" d="M 21.015625 31.527344 L 21.015625 29.492188 L 16.949219 29.492188 L 16.949219 30.507812 L 17.964844 30.507812 L 17.964844 31.527344 Z M 21.015625 31.527344 "/>
<path style=" stroke:none;fill-rule:nonzero;fill:rgb(60.000002%,60.000002%,60.000002%);fill-opacity:1;" d="M 20 29.492188 L 17.964844 29.492188 L 17.964844 30.507812 L 20 30.507812 Z M 20 29.492188 "/>
<path style=" stroke:none;fill-rule:nonzero;fill:rgb(0%,0%,0%);fill-opacity:1;" d="M 29.152344 31.527344 L 29.152344 29.492188 L 25.085938 29.492188 L 25.085938 30.507812 L 26.101562 30.507812 L 26.101562 31.527344 Z M 29.152344 31.527344 "/>
<path style=" stroke:none;fill-rule:nonzero;fill:rgb(60.000002%,60.000002%,60.000002%);fill-opacity:1;" d="M 28.136719 29.492188 L 26.101562 29.492188 L 26.101562 30.507812 L 28.136719 30.507812 Z M 28.136719 29.492188 "/>
<path style=" stroke:none;fill-rule:nonzero;fill:rgb(100%,80.000001%,60.000002%);fill-opacity:1;" d="M 13.898438 12.203125 L 33.21875 12.203125 L 33.21875 28.472656 L 13.898438 28.472656 Z M 13.898438 12.203125 "/>
<path style=" stroke:none;fill-rule:nonzero;fill:rgb(100%,60.000002%,100%);fill-opacity:1;" d="M 14.914062 25.421875 L 14.914062 15.253906 L 15.933594 15.253906 L 15.933594 14.238281 L 16.949219 14.238281 L 16.949219 13.21875 L 30.167969 13.21875 L 30.167969 14.238281 L 31.1875 14.238281 L 31.1875 15.253906 L 32.203125 15.253906 L 32.203125 25.421875 L 31.1875 25.421875 L 31.1875 26.441406 L 30.167969 26.441406 L 30.167969 27.457031 L 16.949219 27.457031 L 16.949219 26.441406 L 15.933594 26.441406 L 15.933594 25.421875 Z M 14.914062 25.421875 "/>
<path style=" stroke:none;fill-rule:nonzero;fill:rgb(100%,20%,60.000002%);fill-opacity:1;" d="M 29.152344 16.269531 L 30.167969 16.269531 L 30.167969 17.289062 L 29.152344 17.289062 Z M 25.085938 14.238281 L 26.101562 14.238281 L 26.101562 15.253906 L 25.085938 15.253906 Z M 22.035156 14.238281 L 23.050781 14.238281 L 23.050781 15.253906 L 22.035156 15.253906 Z M 21.015625 18.304688 L 22.035156 18.304688 L 22.035156 19.320312 L 21.015625 19.320312 Z M 22.035156 21.355469 L 23.050781 21.355469 L 23.050781 22.371094 L 22.035156 22.371094 Z M 20 24.40625 L 21.015625 24.40625 L 21.015625 25.421875 L 20 25.421875 Z M 17.964844 20.339844 L 18.984375 20.339844 L 18.984375 21.355469 L 17.964844 21.355469 Z M 15.933594 22.371094 L 16.949219 22.371094 L 16.949219 23.390625 L 15.933594 23.390625 Z M 16.949219 25.421875 L 17.964844 25.421875 L 17.964844 26.441406 L 16.949219 26.441406 Z M 16.949219 15.253906 L 17.964844 15.253906 L 17.964844 16.269531 L 16.949219 16.269531 Z M 16.949219 15.253906 "/>
<path style=" stroke:none;fill-rule:nonzero;fill:rgb(0%,0%,0%);fill-opacity:1;" d="M 14.914062 28.472656 L 32.203125 28.472656 L 32.203125 29.492188 L 14.914062 29.492188 Z M 14.914062 11.1875 L 32.203125 11.1875 L 32.203125 12.203125 L 14.914062 12.203125 Z M 33.21875 27.457031 L 33.21875 13.21875 L 34.238281 13.21875 L 34.238281 27.457031 Z M 12.882812 27.457031 L 12.882812 13.21875 L 13.898438 13.21875 L 13.898438 27.457031 Z M 13.898438 27.457031 L 14.914062 27.457031 L 14.914062 28.472656 L 13.898438 28.472656 Z M 13.898438 12.203125 L 14.914062 12.203125 L 14.914062 13.21875 L 13.898438 13.21875 Z M 32.203125 12.203125 L 33.21875 12.203125 L 33.21875 13.21875 L 32.203125 13.21875 Z M 32.203125 27.457031 L 33.21875 27.457031 L 33.21875 28.472656 L 32.203125 28.472656 Z M 32.203125 27.457031 "/>
<path style=" stroke:none;fill-rule:nonzero;fill:rgb(60.000002%,60.000002%,60.000002%);fill-opacity:1;" d="M 24.066406 26.441406 L 24.066406 21.355469 L 25.085938 21.355469 L 25.085938 17.289062 L 27.117188 17.289062 L 27.117188 18.304688 L 28.136719 18.304688 L 28.136719 19.320312 L 29.152344 19.320312 L 29.152344 20.339844 L 33.21875 20.339844 L 33.21875 19.320312 L 34.238281 19.320312 L 34.238281 18.304688 L 35.253906 18.304688 L 35.253906 17.289062 L 37.289062 17.289062 L 37.289062 21.355469 L 38.304688 21.355469 L 38.304688 26.441406 L 37.289062 26.441406 L 37.289062 27.457031 L 36.269531 27.457031 L 36.269531 28.472656 L 26.101562 28.472656 L 26.101562 27.457031 L 25.085938 27.457031 L 25.085938 26.441406 Z M 24.066406 26.441406 "/>
<path style=" stroke:none;fill-rule:nonzero;fill:rgb(0%,0%,0%);fill-opacity:1;" d="M 36.269531 27.457031 L 37.289062 27.457031 L 37.289062 28.472656 L 36.269531 28.472656 Z M 37.289062 26.441406 L 38.304688 26.441406 L 38.304688 27.457031 L 37.289062 27.457031 Z M 38.304688 21.355469 L 39.320312 21.355469 L 39.320312 26.441406 L 38.304688 26.441406 Z M 37.289062 17.289062 L 38.304688 17.289062 L 38.304688 21.355469 L 37.289062 21.355469 Z M 35.253906 16.269531 L 37.289062 16.269531 L 37.289062 17.289062 L 35.253906 17.289062 Z M 29.152344 19.320312 L 33.21875 19.320312 L 33.21875 20.339844 L 29.152344 20.339844 Z M 25.085938 16.269531 L 27.117188 16.269531 L 27.117188 17.289062 L 25.085938 17.289062 Z M 24.066406 17.289062 L 25.085938 17.289062 L 25.085938 21.355469 L 24.066406 21.355469 Z M 23.050781 21.355469 L 24.066406 21.355469 L 24.066406 26.441406 L 23.050781 26.441406 Z M 34.238281 17.289062 L 35.253906 17.289062 L 35.253906 18.304688 L 34.238281 18.304688 Z M 33.21875 18.304688 L 34.238281 18.304688 L 34.238281 19.320312 L 33.21875 19.320312 Z M 28.136719 18.304688 L 29.152344 18.304688 L 29.152344 19.320312 L 28.136719 19.320312 Z M 27.117188 17.289062 L 28.136719 17.289062 L 28.136719 18.304688 L 27.117188 18.304688 Z M 26.101562 28.472656 L 36.269531 28.472656 L 36.269531 29.492188 L 26.101562 29.492188 Z M 25.085938 27.457031 L 26.101562 27.457031 L 26.101562 28.472656 L 25.085938 28.472656 Z M 24.066406 26.441406 L 25.085938 26.441406 L 25.085938 27.457031 L 24.066406 27.457031 Z M 24.066406 26.441406 "/>
<path style=" stroke:none;fill-rule:nonzero;fill:rgb(100%,60.000002%,60.000002%);fill-opacity:1;" d="M 25.085938 24.40625 L 27.117188 24.40625 L 27.117188 26.441406 L 25.085938 26.441406 Z M 25.085938 24.40625 "/>
<path style=" stroke:none;fill-rule:nonzero;fill:rgb(100%,60.000002%,60.000002%);fill-opacity:1;" d="M 36.269531 24.40625 L 38.304688 24.40625 L 38.304688 26.441406 L 36.269531 26.441406 Z M 36.269531 24.40625 "/>
<path style=" stroke:none;fill-rule:nonzero;fill:rgb(0%,0%,0%);fill-opacity:1;" d="M 28.136719 27.457031 L 28.136719 25.421875 L 29.152344 25.421875 L 29.152344 26.441406 L 31.1875 26.441406 L 31.1875 25.421875 L 32.203125 25.421875 L 32.203125 26.441406 L 34.238281 26.441406 L 34.238281 25.421875 L 35.253906 25.421875 L 35.253906 27.457031 Z M 28.136719 27.457031 "/>
<path style=" stroke:none;fill-rule:nonzero;fill:rgb(0%,0%,0%);fill-opacity:1;" d="M 32.203125 23.390625 L 33.21875 23.390625 L 33.21875 24.40625 L 32.203125 24.40625 Z M 32.203125 23.390625 "/>
<path style=" stroke:none;fill-rule:nonzero;fill:rgb(0%,0%,0%);fill-opacity:1;" d="M 34.238281 24.40625 L 34.238281 23.390625 L 35.253906 23.390625 L 35.253906 22.371094 L 36.269531 22.371094 L 36.269531 24.40625 Z M 34.238281 24.40625 "/>
<path style=" stroke:none;fill-rule:nonzero;fill:rgb(100%,100%,100%);fill-opacity:1;" d="M 34.238281 22.371094 L 35.253906 22.371094 L 35.253906 23.390625 L 34.238281 23.390625 Z M 34.238281 22.371094 "/>
<path style=" stroke:none;fill-rule:nonzero;fill:rgb(0%,0%,0%);fill-opacity:1;" d="M 27.117188 24.40625 L 27.117188 23.390625 L 28.136719 23.390625 L 28.136719 22.371094 L 29.152344 22.371094 L 29.152344 24.40625 Z M 27.117188 24.40625 "/>
<path style=" stroke:none;fill-rule:nonzero;fill:rgb(100%,100%,100%);fill-opacity:1;" d="M 27.117188 22.371094 L 28.136719 22.371094 L 28.136719 23.390625 L 27.117188 23.390625 Z M 27.117188 22.371094 "/>
<path style=" stroke:none;fill-rule:nonzero;fill:rgb(0%,0%,0%);fill-opacity:1;" d="M 34.238281 31.527344 L 34.238281 29.492188 L 30.167969 29.492188 L 30.167969 30.507812 L 31.1875 30.507812 L 31.1875 31.527344 Z M 34.238281 31.527344 "/>
<path style=" stroke:none;fill-rule:nonzero;fill:rgb(60.000002%,60.000002%,60.000002%);fill-opacity:1;" d="M 33.21875 29.492188 L 31.1875 29.492188 L 31.1875 30.507812 L 33.21875 30.507812 Z M 33.21875 29.492188 "/>
<g clip-path="url(#clip2)" clip-rule="nonzero">
<path style=" stroke:none;fill-rule:nonzero;fill:rgb(0%,0%,0%);fill-opacity:1;" d="M 5.761719 22.371094 L 5.761719 20.339844 L 6.78125 20.339844 L 6.78125 19.320312 L 10.847656 19.320312 L 10.847656 20.339844 L 12.882812 20.339844 L 12.882812 24.40625 L 10.847656 24.40625 L 10.847656 23.390625 L 7.796875 23.390625 L 7.796875 22.371094 Z M 5.761719 22.371094 "/>
</g>
<path style=" stroke:none;fill-rule:nonzero;fill:rgb(60.000002%,60.000002%,60.000002%);fill-opacity:1;" d="M 6.78125 21.355469 L 6.78125 20.339844 L 9.832031 20.339844 L 9.832031 21.355469 L 11.863281 21.355469 L 11.863281 22.371094 L 12.882812 22.371094 L 12.882812 23.390625 L 11.863281 23.390625 L 11.863281 22.371094 L 7.796875 22.371094 L 7.796875 21.355469 Z M 6.78125 21.355469 "/>
</g>
</svg>
